<?xml version="1.0" standalone="no"?><!DOCTYPE svg PUBLIC "-//W3C//DTD SVG 1.1//EN" "http://www.w3.org/Graphics/SVG/1.1/DTD/svg11.dtd"><svg t="1505808883676" class="icon" style="" viewBox="0 0 1025 1024" version="1.1" xmlns="http://www.w3.org/2000/svg" p-id="12221" xmlns:xlink="http://www.w3.org/1999/xlink" width="64.0625" height="64"><defs><style type="text/css"></style></defs><path d="M512.7 106.3c120 0 240-0.1 360.1 0 91.3 0.1 151.1 59.3 151.2 149.7 0.1 170.3 0.1 340.7 0 511-0.1 92-59.4 150.7-152.5 150.7-240 0.1-480.1 0.1-720.1 0C59.9 917.6 0.1 858.4 0.1 768 0 596.9 0 425.8 0.1 254.7 0.2 166 60.5 106.4 150.3 106.3 271.1 106.2 391.9 106.3 512.7 106.3zM511.6 179.4c-63.2 0-126.3 0-189.5 0-60.8 0-121.6-0.3-182.4 0.2-31.4 0.2-55 15.9-63.1 40.1-16.5 49.5-3.1 101.8 40.5 132.6 109.8 77.7 221.1 153.2 332 229.3 43.1 29.6 86.6 29.4 130 0.2 7.2-4.8 14.8-9.1 21.9-14 97.2-66.9 193.6-134.9 291.8-200.4 42.1-28.1 64.1-60.4 58.6-113.6-5.6-53.7-22-74.3-77.4-74.4C753.2 179.3 632.4 179.4 511.6 179.4zM933.9 823.6C854.7 745.3 776.8 667.9 698 591.3c-3.6-3.5-15.9-2.4-21.3 1-24.8 15.1-47.7 33.6-73.1 47.6-42.3 23.1-87.6 40.4-135.1 18.1-38.9-18.3-75.9-41-112.2-64-14.4-9.1-21.7-8.6-33.4 3.2-72.1 72.3-145 143.9-217.5 215.7-4.2 4.2-7.7 9.2-16.2 19.5 19.7 4.9 34.8 11.1 50.2 11.9 32.3 1.7 64.7 0.6 97.1 0.6 212.4 0 424.9 0 637.3 0C895.2 844.8 916.7 845.1 933.9 823.6zM75.2 401.8c0 115.3 0 227 0 334.4 65.5-65 132.3-131.4 199.9-198.6C211.4 494.4 144.7 449.1 75.2 401.8zM949 405.1c-69 46.9-134.3 91.2-196.4 133.3C819 605 883.9 670 949 735.1 949 627.5 949 518.8 949 405.1z" p-id="12222" fill="#d9534f"></path></svg>