<?xml version="1.0" standalone="no"?><!DOCTYPE svg PUBLIC "-//W3C//DTD SVG 1.1//EN" "http://www.w3.org/Graphics/SVG/1.1/DTD/svg11.dtd"><svg t="1506479244979" class="icon" style="" viewBox="0 0 1024 1024" version="1.1" xmlns="http://www.w3.org/2000/svg" p-id="23156" xmlns:xlink="http://www.w3.org/1999/xlink" width="64" height="64"><defs><style type="text/css"></style></defs><path d="M511.85664 61.53216C263.10656 61.53216 61.46048 263.168 61.46048 511.92832c0 248.73984 201.64608 450.39616 450.39616 450.39616 248.73984 0 450.38592-201.65632 450.38592-450.39616 0-248.75008-201.64608-450.39616-450.38592-450.39616z m-16.05632 104.23296c1.82272-0.58368 4.12672-0.4608 5.14048-2.6624h20.44928c8.2432 3.84 17.14176 6.10304 24.39168 12.26752 16.27136 13.78304 23.51104 35.82976 17.63328 55.72608-6.3488 21.53472-23.38816 36.08576-45.18912 38.6048-28.13952 3.2768-53.3504-14.91968-59.0336-42.60864-5.40672-26.3168 10.57792-53.0432 36.608-61.3376z m-224.06144 96.0512c53.18656 35.9936 103.79264 75.48928 154.4704 114.86208 39.22944 30.47424 78.35648 61.0816 117.3504 91.8528 17.3056 13.64992 25.00608 31.8976 20.69504 53.52448-4.4032 22.1184-18.37056 36.79232-40.61184 41.84064-22.24128 5.04832-41.0624-2.2528-54.90688-20.03968-61.0304-78.37696-122.86976-156.13952-181.15584-236.61568-10.89536-15.0528-21.68832-30.19776-31.0784-46.26432-1.36192-2.33472-2.84672-4.62848-3.3792-8.84736 7.5776 2.06848 13.1072 5.95968 18.61632 9.69728zM860.672 525.55776c-1.10592 1.11616-0.55296 2.52928-0.70656 3.81952 0.06144 1.04448-0.2048 2.1504 0.7168 3.00032v8.17152c-1.65888 10.7008-1.6384 21.5552-3.51232 32.26624-8.86784 50.46272-28.09856 96.6656-57.20064 138.67008-29.91104 43.1616-67.6352 78.14144-113.27488 104.26368-39.2192 22.45632-81.152 37.376-126.07488 43.34592-7.5776 1.00352-15.29856 0.44032-22.87616 1.65888h-5.45792c-0.83968-0.9216-1.95584-0.64512-3.00032-0.69632-1.29024 0.13312-2.69312-0.4096-3.80928 0.69632h-27.2384c-1.1264-1.10592-2.53952-0.55296-3.81952-0.69632-1.04448 0.0512-2.17088-0.21504-3.01056 0.69632h-8.17152c-10.45504-1.7408-21.0944-1.51552-31.5904-3.39968-62.64832-11.27424-118.25152-37.30432-166.78912-78.5408-43.56096-37.00736-75.99104-82.0736-97.792-134.8096a332.05248 332.05248 0 0 1-22.44608-83.97824c-0.83968-6.4512-0.32768-13.03552-1.5872-19.47648v-8.17152c0.9216-0.83968 0.63488-1.95584 0.70656-3.01056-0.14336-1.28 0.39936-2.69312-0.70656-3.80928v-27.2384c1.30048-1.50528 0.45056-3.31776 0.70656-4.9664-0.09216-1.10592 0.28672-2.31424-0.70656-3.21536v-5.45792c3.08224-7.12704 2.51904-14.87872 3.60448-22.3232a348.5696 348.5696 0 0 1 24.576-87.37792c6.144-14.3872 22.81472-22.016 37.7856-17.27488 21.20704 6.72768 31.29344 26.79808 23.43936 47.47264-6.13376 16.11776-11.64288 32.38912-15.12448 49.29536-10.1376 49.2544-7.89504 97.792 8.1408 145.59232a280.4736 280.4736 0 0 0 66.06848 108.1344 278.8352 278.8352 0 0 0 92.83584 62.89408c37.7856 15.79008 77.23008 23.00928 118.14912 21.36064 55.6032-2.24256 106.14784-19.69152 151.52128-51.80416 42.86464-30.33088 74.71104-69.8368 95.55968-117.9648 19.99872-46.12096 27.1872-94.33088 20.77696-144.29184-10.15808-79.2064-47.90272-142.4896-110.98112-191.00672-12.25728-9.4208-25.89696-16.70144-38.8096-25.088-6.00064-3.8912-11.0592-8.74496-14.6944-14.88896-8.11008-13.68064-5.67296-30.44352 5.9904-42.41408 8.99072-9.23648 24.33024-10.62912 37.86752-3.61472 71.51616 37.12 124.65152 92.04736 158.9248 164.94592 17.00864 36.18816 26.88 74.46528 30.5664 114.31936 0.13312 1.39264-0.7168 3.30752 1.4336 4.03456l0.01024 5.45792c-1.3312 1.66912-0.44032 3.62496-0.70656 5.4272v3.75808c0.2048 1.4848-0.512 3.11296 0.7168 4.43392v21.8112z" p-id="23157" fill="#d9534f"></path></svg>