<?xml version="1.0" standalone="no"?><!DOCTYPE svg PUBLIC "-//W3C//DTD SVG 1.1//EN" "http://www.w3.org/Graphics/SVG/1.1/DTD/svg11.dtd"><svg t="1506479295011" class="icon" style="" viewBox="0 0 1024 1024" version="1.1" xmlns="http://www.w3.org/2000/svg" p-id="23600" xmlns:xlink="http://www.w3.org/1999/xlink" width="64" height="64"><defs><style type="text/css"></style></defs><path d="M929.792 604.032c-9.92-19.52-19.648-39.04-30.4-58.112-12.416-22.08-12.864-43.52-0.32-65.728 10.624-19.072 20.352-38.72 30.336-58.24 18.816-37.056 9.792-64.576-27.52-83.648-20.032-10.176-40.192-20.416-60.416-30.016-21.824-10.304-33.216-27.2-36.16-50.944-2.88-23.552-6.528-47.04-10.752-70.4-6.592-35.712-30.272-52.352-65.92-47.104-23.552 3.52-47.04 6.976-70.336 11.584-23.04 4.608-41.792-1.472-57.856-18.176a3055.717 3055.717 0 0 0-47.552-48c-30.208-29.952-55.808-30.144-85.76-0.32-16.448 16.256-32.512 32.832-48.768 49.344-15.68 15.936-34.176 21.568-56.448 17.28-23.872-4.672-48-8.384-72.064-11.904-34.432-4.928-58.24 12.352-64.448 46.848-4.224 23.36-8.128 46.848-10.944 70.4-2.944 24.576-14.912 41.6-37.312 52.032-20.992 9.664-41.664 20.096-62.08 30.912-34.048 18.048-43.008 45.568-25.856 80 10.752 21.824 22.08 43.456 33.472 65.024 9.856 18.624 9.92 36.864 0.128 55.488-11.008 21.12-21.952 42.112-32.64 63.424-18.56 36.736-10.112 63.488 26.24 82.368 21.056 10.944 42.368 21.504 63.744 31.808 20.416 9.792 31.04 26.048 34.048 48.256 3.584 25.344 7.232 50.752 11.904 75.904 5.568 30.848 30.784 48.576 61.312 43.84 24.704-3.776 49.408-7.36 73.984-12.096 22.912-4.416 41.856 1.28 57.92 18.112 15.68 16.256 31.552 32.128 47.552 48 30.464 30.144 55.488 30.4 85.632 0.512 16.448-16.256 32.704-32.768 48.832-49.344 15.616-16.064 34.176-21.44 56.32-17.28 27.072 5.12 54.272 8.896 76.16 12.416 36.032-0.256 54.784-15.36 60.096-45.44 4.352-24.576 8.384-49.344 11.648-74.048 3.072-22.976 14.08-39.36 35.264-49.408 20.864-9.92 41.472-20.352 62.016-30.912 36.672-19.136 45.248-45.568 26.944-82.432zM723.904 438.144c-74.24 74.24-148.416 148.416-222.72 222.528-11.328 11.328-22.528 11.2-34.112-0.384-42.752-43.072-85.76-85.824-128.64-128.576-5.056-5.056-8.896-10.432-8.832-21.504 3.712-14.592 17.216-24.896 31.488-33.408 12.096-7.168 20.992 2.048 29.184 10.24 27.84 27.776 56 55.296 83.264 83.584 8.64 8.896 13.504 8.576 22.08 0C553.088 512.32 611.2 454.72 668.928 396.736c8.576-8.576 17.28-19.136 30.336-13.12 14.784 6.72 27.072 18.112 32.32 34.432 2.432 7.68-2.24 14.592-7.68 20.096z m0 0" fill="#5cb85c" p-id="23601"></path></svg>