<?xml version="1.0" standalone="no"?><!DOCTYPE svg PUBLIC "-//W3C//DTD SVG 1.1//EN" "http://www.w3.org/Graphics/SVG/1.1/DTD/svg11.dtd"><svg t="1505808445259" class="icon" style="" viewBox="0 0 1024 1024" version="1.1" xmlns="http://www.w3.org/2000/svg" p-id="10827" xmlns:xlink="http://www.w3.org/1999/xlink" width="64" height="64"><defs><style type="text/css"></style></defs><path d="M857.997 895.32h-693c-55.691 0-101-45.309-101-101v-434c0-17.673 14.327-32 32-32s32 14.327 32 32v434c0 20.401 16.598 37 37 37h693c20.401 0 37-16.599 37-37v-434c0-17.673 14.327-32 32-32s32 14.327 32 32v434c0 55.692-45.309 101-101 101z" fill="#5cb85c" p-id="10828"></path><path d="M511.462 656.014c-15.908 0-31.816-5.664-44.4-16.994L77.904 375.013c-14.625-9.922-18.438-29.821-8.517-44.446 9.922-14.625 29.823-18.438 44.446-8.517l391.268 265.437a32.046 32.046 0 0 1 4.662 3.854 2.404 2.404 0 0 0 3.397 0.001 31.959 31.959 0 0 1 4.614-3.821l391.351-266.543c14.608-9.949 34.515-6.171 44.462 8.435 9.948 14.607 6.172 34.513-8.435 44.462L555.888 638.996c-12.588 11.345-28.507 17.018-44.426 17.018z" fill="#5cb85c" p-id="10829"></path><path d="M927.109 377.142a31.85 31.85 0 0 1-17.995-5.562L519.287 105.847a32.08 32.08 0 0 1-4.604-3.814 2.18 2.18 0 0 0-1.615-0.671h-0.001c-0.926 0-1.416 0.489-1.577 0.65a32.003 32.003 0 0 1-4.598 3.81l-387.53 264.282c-14.601 9.956-34.51 6.193-44.467-8.408-9.958-14.601-6.193-34.509 8.408-44.467L468.75 54.368c12.18-10.993 27.785-17.006 44.316-17.006h0.031c16.531 0.007 32.14 6.029 44.325 17.026l387.74 264.31c14.603 9.954 18.371 29.862 8.417 44.465-6.193 9.087-16.243 13.979-26.47 13.979z" fill="#5cb85c" p-id="10830"></path></svg>